<?xml version="1.0" encoding="UTF-8" standalone="no"?>
<svg
   xmlns:dc="http://purl.org/dc/elements/1.1/"
   xmlns:cc="http://creativecommons.org/ns#"
   xmlns:rdf="http://www.w3.org/1999/02/22-rdf-syntax-ns#"
   xmlns:svg="http://www.w3.org/2000/svg"
   xmlns="http://www.w3.org/2000/svg"
   xmlns:sodipodi="http://sodipodi.sourceforge.net/DTD/sodipodi-0.dtd"
   xmlns:inkscape="http://www.inkscape.org/namespaces/inkscape"
   width="176mm"
   height="158mm"
   viewBox="0 -158 176 158"
   version="1.1"
   id="svg6"
   sodipodi:docname="front.svg"
   inkscape:version="0.92.5 (2060ec1f9f, 2020-04-08)">
  <metadata
     id="metadata12">
    <rdf:RDF>
      <cc:Work
         rdf:about="">
        <dc:format>image/svg+xml</dc:format>
        <dc:type
           rdf:resource="http://purl.org/dc/dcmitype/StillImage" />
        <dc:title>OpenSCAD Model</dc:title>
      </cc:Work>
    </rdf:RDF>
  </metadata>
  <defs
     id="defs10" />
  <sodipodi:namedview
     pagecolor="#ffffff"
     bordercolor="#666666"
     borderopacity="1"
     objecttolerance="10"
     gridtolerance="10"
     guidetolerance="10"
     inkscape:pageopacity="0"
     inkscape:pageshadow="2"
     inkscape:window-width="1920"
     inkscape:window-height="1031"
     id="namedview8"
     showgrid="false"
     inkscape:zoom="0.39520042"
     inkscape:cx="337.65915"
     inkscape:cy="298.58268"
     inkscape:window-x="0"
     inkscape:window-y="25"
     inkscape:window-maximized="1"
     inkscape:current-layer="svg6" />
  <title
     id="title2">OpenSCAD Model</title>
  <path
     d="M 176,0 H 0 v -158 h 176 z m -11.5,-19.75 -0.0294,-0.5979 -0.0878,-0.5922 -0.1455,-0.5806 -0.2016,-0.5637 -0.256,-0.5411 -0.3077,-0.5135 -0.3566,-0.4808 -0.402,-0.4436 -0.4436,-0.402 -0.4808,-0.3566 -0.5135,-0.3077 -0.5411,-0.256 -0.5637,-0.2016 -0.5806,-0.1455 -0.5922,-0.0878 -0.5979,-0.0294 -0.5979,0.0294 -0.5922,0.0878 -0.5806,0.1455 -0.5637,0.2016 -0.5411,0.256 -0.5135,0.3077 -0.4808,0.3566 -0.4436,0.402 -0.402,0.4436 -0.3566,0.4808 -0.3077,0.5135 -0.256,0.5411 -0.2016,0.5637 -0.1455,0.5806 -0.0878,0.5922 -0.0294,0.5979 0.0294,0.5979 0.0878,0.5922 0.1455,0.5806 0.2016,0.5637 0.256,0.5411 0.3077,0.5135 0.3566,0.4808 0.402,0.4436 0.4436,0.402 0.4808,0.3566 0.5135,0.3077 0.5411,0.256 0.5637,0.2016 0.5806,0.1455 0.5922,0.0878 0.5979,0.0294 0.5979,-0.0294 0.5922,-0.0878 0.5806,-0.1455 0.5637,-0.2016 0.5411,-0.256 0.5135,-0.3077 0.4808,-0.3566 0.4436,-0.402 0.402,-0.4436 0.3566,-0.4808 0.3077,-0.5135 0.256,-0.5411 0.2016,-0.5637 0.1455,-0.5806 0.0878,-0.5922 z m -9.9,-85.75 v -26 h -45.2 v 26 z m -6.9,69.43 v -6.86 h -14.4 v 6.86 z m -0.8,16.32 -0.0294,-0.5979 -0.0878,-0.5922 -0.1455,-0.5806 -0.2016,-0.5637 -0.256,-0.5411 -0.3077,-0.5135 -0.3566,-0.4808 -0.402,-0.4436 -0.4436,-0.402 -0.4808,-0.3566 -0.5135,-0.3077 -0.5411,-0.256 -0.5637,-0.2016 -0.5806,-0.1455 -0.5922,-0.0878 -0.5979,-0.0294 -0.5979,0.0294 -0.5922,0.0878 -0.5806,0.1455 -0.5637,0.2016 -0.5411,0.256 -0.5135,0.3077 -0.4808,0.3566 -0.4436,0.402 -0.402,0.4436 -0.3566,0.4808 -0.3077,0.5135 -0.256,0.5411 -0.2016,0.5637 -0.1455,0.5806 -0.0878,0.5922 -0.0294,0.5979 0.0294,0.5979 0.0878,0.5922 0.1455,0.5806 0.2016,0.5637 0.256,0.5411 0.3077,0.5135 0.3566,0.4808 0.402,0.4436 0.4436,0.402 0.4808,0.3566 0.5135,0.3077 0.5411,0.256 0.5637,0.2016 0.5806,0.1455 0.5922,0.0878 0.5979,0.0294 0.5979,-0.0294 0.5922,-0.0878 0.5806,-0.1455 0.5637,-0.2016 0.5411,-0.256 0.5135,-0.3077 0.4808,-0.3566 0.4436,-0.402 0.402,-0.4436 0.3566,-0.4808 0.3077,-0.5135 0.256,-0.5411 0.2016,-0.5637 0.1455,-0.5806 0.0878,-0.5922 z m -1.0375,-39.5 -0.005,-0.0992 -0.0146,-0.0983 -0.0241,-0.0964 -0.0335,-0.0936 -0.0425,-0.0898 -0.051,-0.0852 -0.0592,-0.0798 -0.0668,-0.0736 -0.0736,-0.0668 -0.0798,-0.0592 -0.0852,-0.051 -0.0898,-0.0425 -0.0936,-0.0335 -0.0964,-0.0241 -0.0983,-0.0146 -0.0992,-0.0049 -0.0992,0.0049 -0.0319,0.0047 -0.0433,-0.1728 -0.1339,-0.3742 -0.1699,-0.3593 -0.2043,-0.3409 -0.2368,-0.3192 -0.2669,-0.2945 -0.2945,-0.2669 -0.3192,-0.2368 -0.3409,-0.2043 -0.3593,-0.1699 -0.3742,-0.1339 -0.3856,-0.0966 -0.3931,-0.0583 -0.397,-0.0195 -0.397,0.0195 -0.3931,0.0583 -0.3856,0.0966 -0.3742,0.1339 -0.3593,0.1699 -0.3409,0.2043 -0.3192,0.2368 -0.2945,0.2669 -0.2669,0.2945 -0.2368,0.3192 -0.2043,0.3409 -0.1699,0.3593 -0.1339,0.3742 -0.0433,0.1728 -0.0319,-0.0047 -0.0992,-0.0049 -0.0992,0.0049 -0.0983,0.0146 -0.0964,0.0241 -0.0936,0.0335 -0.0898,0.0425 -0.0852,0.051 -0.0798,0.0592 -0.0736,0.0668 -0.0668,0.0736 -0.0592,0.0798 -0.051,0.0852 -0.0425,0.0898 -0.0335,0.0936 -0.0241,0.0964 -0.0146,0.0983 -0.005,0.0992 0.005,0.0992 0.0146,0.0983 0.0241,0.0964 0.0335,0.0936 0.0425,0.0898 0.051,0.0852 0.0592,0.0798 0.0668,0.0736 0.0736,0.0668 0.0798,0.0592 0.0852,0.051 0.0898,0.0425 0.0936,0.0335 0.0964,0.0241 0.0983,0.0146 0.0992,0.0049 0.0992,-0.0049 0.0319,-0.0047 0.0433,0.1728 0.1339,0.3742 0.1699,0.3593 0.2043,0.3409 0.2368,0.3192 0.2669,0.2945 0.2945,0.2669 0.3192,0.2368 0.3409,0.2043 0.3593,0.1699 0.3742,0.1339 0.3856,0.0966 0.3931,0.0583 0.397,0.0195 0.397,-0.0195 0.3931,-0.0583 0.3856,-0.0966 0.3742,-0.1339 0.3593,-0.1699 0.3409,-0.2043 0.3192,-0.2368 0.2945,-0.2669 0.2669,-0.2945 0.2368,-0.3192 0.2043,-0.3409 0.1699,-0.3593 0.1339,-0.3742 0.0433,-0.1728 0.0319,0.0047 0.0992,0.0049 0.0992,-0.0049 0.0983,-0.0146 0.0964,-0.0241 0.0936,-0.0335 0.0898,-0.0425 0.0852,-0.051 0.0798,-0.0592 0.0736,-0.0668 0.0668,-0.0736 0.0592,-0.0798 0.051,-0.0852 0.0425,-0.0898 0.0335,-0.0936 0.0241,-0.0964 0.0146,-0.0983 z M 135.85,-79 l -0.0185,-0.3774 -0.0555,-0.3737 -0.0918,-0.3665 -0.1273,-0.3557 -0.1615,-0.3416 -0.1942,-0.324 -0.2251,-0.3035 -0.2537,-0.28 -0.28,-0.2537 -0.3035,-0.2251 -0.324,-0.1942 -0.3416,-0.1615 -0.3557,-0.1273 -0.3665,-0.0918 -0.3737,-0.0555 L 132,-82.85 l -0.3774,0.0185 -0.3737,0.0555 -0.3665,0.0918 -0.3557,0.1273 -0.3416,0.1615 -0.324,0.1942 -0.3035,0.2251 -0.28,0.2537 -0.2537,0.28 -0.2251,0.3035 -0.1942,0.324 -0.1615,0.3416 -0.1273,0.3557 -0.0918,0.3665 -0.0555,0.3737 -0.0185,0.3774 0.0185,0.3774 0.0555,0.3737 0.0918,0.3665 0.1273,0.3557 0.1615,0.3416 0.1942,0.324 0.2251,0.3035 0.2537,0.28 0.28,0.2537 0.3035,0.2251 0.324,0.1942 0.3416,0.1615 0.3557,0.1273 0.3665,0.0918 0.3737,0.0555 0.3774,0.0185 0.3774,-0.0185 0.3737,-0.0555 0.3665,-0.0918 0.3557,-0.1273 0.3416,-0.1615 0.324,-0.1942 0.3035,-0.2251 0.28,-0.2537 0.2537,-0.28 0.2251,-0.3035 0.1942,-0.324 0.1615,-0.3416 0.1273,-0.3557 0.0918,-0.3665 0.0555,-0.3737 z m -5.15,42.93 v -6.86 h -14.4 v 6.86 z m -2.4375,-23.18 -0.005,-0.0992 -0.0146,-0.0983 -0.0241,-0.0964 -0.0335,-0.0936 -0.0425,-0.0898 -0.051,-0.0852 -0.0592,-0.0798 -0.0668,-0.0736 -0.0736,-0.0668 -0.0798,-0.0592 -0.0852,-0.051 -0.0898,-0.0425 -0.0936,-0.0335 -0.0964,-0.0241 -0.0983,-0.0146 -0.0992,-0.0049 -0.0992,0.0049 -0.0319,0.0047 -0.0433,-0.1728 -0.1339,-0.3742 -0.1699,-0.3593 -0.2043,-0.3409 -0.2368,-0.3192 -0.2669,-0.2945 -0.2945,-0.2669 -0.3192,-0.2368 -0.3409,-0.2043 -0.3593,-0.1699 -0.3742,-0.1339 -0.3856,-0.0966 -0.3931,-0.0583 -0.397,-0.0195 -0.397,0.0195 -0.3931,0.0583 -0.3856,0.0966 -0.3742,0.1339 -0.3593,0.1699 -0.3409,0.2043 -0.3192,0.2368 -0.2945,0.2669 -0.2669,0.2945 -0.2368,0.3192 -0.2043,0.3409 -0.1699,0.3593 -0.1339,0.3742 -0.0433,0.1728 -0.0319,-0.0047 -0.0992,-0.0049 -0.0992,0.0049 -0.0983,0.0146 -0.0964,0.0241 -0.0936,0.0335 -0.0898,0.0425 -0.0852,0.051 -0.0798,0.0592 -0.0736,0.0668 -0.0668,0.0736 -0.0592,0.0798 -0.051,0.0852 -0.0425,0.0898 -0.0335,0.0936 -0.0241,0.0964 -0.0146,0.0983 -0.005,0.0992 0.005,0.0992 0.0146,0.0983 0.0241,0.0964 0.0335,0.0936 0.0425,0.0898 0.051,0.0852 0.0592,0.0798 0.0668,0.0736 0.0736,0.0668 0.0798,0.0592 0.0852,0.051 0.0898,0.0425 0.0936,0.0335 0.0964,0.0241 0.0983,0.0146 0.0992,0.0049 0.0992,-0.0049 0.0319,-0.0047 0.0433,0.1728 0.1339,0.3742 0.1699,0.3593 0.2043,0.3409 0.2368,0.3192 0.2669,0.2945 0.2945,0.2669 0.3192,0.2368 0.3409,0.2043 0.3593,0.1699 0.3742,0.1339 0.3856,0.0966 0.3931,0.0583 0.397,0.0195 0.397,-0.0195 0.3931,-0.0583 0.3856,-0.0966 0.3742,-0.1339 0.3593,-0.1699 0.3409,-0.2043 0.3192,-0.2368 0.2945,-0.2669 0.2669,-0.2945 0.2368,-0.3192 0.2043,-0.3409 0.1699,-0.3593 0.1339,-0.3742 0.0433,-0.1728 0.0319,0.0047 0.0992,0.0049 0.0992,-0.0049 0.0983,-0.0146 0.0964,-0.0241 0.0936,-0.0335 0.0898,-0.0425 0.0852,-0.051 0.0798,-0.0592 0.0736,-0.0668 0.0668,-0.0736 0.0592,-0.0798 0.051,-0.0852 0.0425,-0.0898 0.0335,-0.0936 0.0241,-0.0964 0.0146,-0.0983 z M 94.65,-133.85 v -8.8 h -13.3 v 8.8 z m -1.85,15.35 -0.0077,-0.157 -0.023,-0.155 -0.0382,-0.152 -0.0529,-0.148 -0.0671,-0.142 -0.0807,-0.135 -0.0936,-0.126 -0.1054,-0.116 -0.1164,-0.106 -0.1261,-0.093 -0.1347,-0.081 -0.1419,-0.067 -0.1478,-0.053 -0.1524,-0.038 -0.1553,-0.023 -0.1568,-0.008 -0.1568,0.008 -0.1553,0.023 -0.1524,0.038 -0.1478,0.053 -0.1419,0.067 -0.1347,0.081 -0.1261,0.093 -0.1164,0.106 -0.1054,0.116 -0.0936,0.126 -0.0807,0.135 -0.0671,0.142 -0.0529,0.148 -0.0382,0.152 -0.023,0.155 -0.0077,0.157 0.0077,0.157 0.023,0.155 0.0382,0.152 0.0529,0.148 0.0671,0.142 0.0807,0.135 0.0936,0.126 0.1054,0.116 0.1164,0.106 0.1261,0.093 0.1347,0.081 0.1419,0.067 0.1478,0.053 0.1524,0.038 0.1553,0.023 0.1568,0.008 0.1568,-0.008 0.1553,-0.023 0.1524,-0.038 0.1478,-0.053 0.1419,-0.067 0.1347,-0.081 0.1261,-0.093 0.1164,-0.106 0.1054,-0.116 0.0936,-0.126 0.0807,-0.135 0.0671,-0.142 0.0529,-0.148 0.0382,-0.152 0.023,-0.155 z m -6.4,0 -0.0077,-0.157 -0.023,-0.155 -0.0382,-0.152 -0.0529,-0.148 -0.0671,-0.142 -0.0807,-0.135 -0.0936,-0.126 -0.1054,-0.116 -0.1164,-0.106 -0.1261,-0.093 -0.1347,-0.081 -0.1419,-0.067 -0.1478,-0.053 -0.1524,-0.038 -0.1553,-0.023 -0.1568,-0.008 -0.1568,0.008 -0.1553,0.023 -0.1524,0.038 -0.1478,0.053 -0.1419,0.067 -0.1347,0.081 -0.1261,0.093 -0.1164,0.106 -0.1054,0.116 -0.0936,0.126 -0.0807,0.135 -0.0671,0.142 -0.0529,0.148 -0.0382,0.152 -0.023,0.155 -0.0077,0.157 0.0077,0.157 0.023,0.155 0.0382,0.152 0.0529,0.148 0.0671,0.142 0.0807,0.135 0.0936,0.126 0.1054,0.116 0.1164,0.106 0.1261,0.093 0.1347,0.081 0.1419,0.067 0.1478,0.053 0.1524,0.038 0.1553,0.023 0.1568,0.008 0.1568,-0.008 0.1553,-0.023 0.1524,-0.038 0.1478,-0.053 0.1419,-0.067 0.1347,-0.081 0.1261,-0.093 0.1164,-0.106 0.1054,-0.116 0.0936,-0.126 0.0807,-0.135 0.0671,-0.142 0.0529,-0.148 0.0382,-0.152 0.023,-0.155 z m -9.9,98.75 -0.0294,-0.5979 -0.0878,-0.5922 -0.1455,-0.5806 -0.2016,-0.5637 -0.2557,-0.5411 -0.308,-0.5135 -0.357,-0.4808 -0.402,-0.4436 -0.443,-0.402 -0.481,-0.3566 -0.513,-0.3077 -0.542,-0.256 -0.563,-0.2016 -0.581,-0.1455 -0.592,-0.0878 -0.598,-0.0294 -0.598,0.0294 -0.592,0.0878 -0.581,0.1455 -0.563,0.2016 -0.542,0.256 -0.513,0.3077 -0.481,0.3566 -0.443,0.402 -0.402,0.4436 -0.357,0.4808 -0.308,0.5135 -0.256,0.5411 -0.201,0.5637 -0.146,0.5806 -0.088,0.5922 -0.029,0.5979 0.029,0.5979 0.088,0.5922 0.146,0.5806 0.201,0.5637 0.256,0.5411 0.308,0.5135 0.357,0.4808 0.402,0.4436 0.443,0.402 0.481,0.3566 0.513,0.3077 0.542,0.256 0.563,0.2016 0.581,0.1455 0.592,0.0878 0.598,0.0294 0.598,-0.0294 0.592,-0.0878 0.581,-0.1455 0.563,-0.2016 0.542,-0.256 0.513,-0.3077 0.481,-0.3566 0.443,-0.402 0.402,-0.4436 0.357,-0.4808 0.308,-0.5135 0.2557,-0.5411 0.2016,-0.5637 0.1455,-0.5806 0.0878,-0.5922 z m -1.038,-19.75 -0.004,-0.0992 -0.015,-0.0983 -0.024,-0.0964 -0.034,-0.0936 -0.042,-0.0898 -0.051,-0.0852 -0.059,-0.0798 -0.067,-0.0736 -0.074,-0.0668 -0.079,-0.0592 -0.086,-0.051 -0.09,-0.0425 -0.093,-0.0335 -0.096,-0.0241 -0.099,-0.0146 -0.099,-0.0049 -0.099,0.0049 -0.032,0.0047 -0.043,-0.1728 -0.134,-0.3742 -0.17,-0.3593 -0.205,-0.3409 -0.236,-0.3192 -0.267,-0.2945 -0.295,-0.2669 -0.319,-0.2368 -0.341,-0.2043 -0.359,-0.1699 -0.374,-0.1339 -0.386,-0.0966 -0.393,-0.0583 -0.397,-0.0195 -0.397,0.0195 -0.393,0.0583 -0.386,0.0966 -0.374,0.1339 -0.359,0.1699 -0.341,0.2043 -0.319,0.2368 -0.295,0.2669 -0.267,0.2945 -0.236,0.3192 -0.205,0.3409 -0.17,0.3593 -0.134,0.3742 -0.043,0.1728 -0.032,-0.0047 -0.099,-0.0049 -0.099,0.0049 -0.099,0.0146 -0.096,0.0241 -0.093,0.0335 -0.09,0.0425 -0.086,0.051 -0.079,0.0592 -0.074,0.0668 -0.067,0.0736 -0.059,0.0798 -0.051,0.0852 -0.042,0.0898 -0.034,0.0936 -0.024,0.0964 -0.015,0.0983 -0.005,0.0992 0.005,0.0992 0.015,0.0983 0.024,0.0964 0.034,0.0936 0.042,0.0898 0.051,0.0852 0.059,0.0798 0.067,0.0736 0.074,0.0668 0.079,0.0592 0.086,0.051 0.09,0.0425 0.093,0.0335 0.096,0.0241 0.099,0.0146 0.099,0.0049 0.099,-0.0049 0.032,-0.0047 0.043,0.1728 0.134,0.3742 0.17,0.3593 0.205,0.3409 0.236,0.3192 0.267,0.2945 0.295,0.2669 0.319,0.2368 0.341,0.2043 0.359,0.1699 0.374,0.1339 0.386,0.0966 0.393,0.0583 0.397,0.0195 0.397,-0.0195 0.393,-0.0583 0.386,-0.0966 0.374,-0.1339 0.359,-0.1699 0.341,-0.2043 0.319,-0.2368 0.295,-0.2669 0.267,-0.2945 0.236,-0.3192 0.205,-0.3409 0.17,-0.3593 0.134,-0.3742 0.043,-0.1728 0.032,0.0047 0.099,0.0049 0.099,-0.0049 0.099,-0.0146 0.096,-0.0241 0.093,-0.0335 0.09,-0.0425 0.086,-0.051 0.079,-0.0592 0.074,-0.0668 0.067,-0.0736 0.059,-0.0798 0.051,-0.0852 0.042,-0.0898 0.034,-0.0936 0.024,-0.0964 0.015,-0.0983 z m -8.862,-66 v -26 H 21.4 v 26 z m -4.083,26.5 -0.019,-0.3774 -0.055,-0.3737 -0.092,-0.3665 -0.127,-0.3557 -0.162,-0.3416 -0.194,-0.324 -0.225,-0.3035 -0.254,-0.28 -0.28,-0.2537 -0.303,-0.2251 -0.324,-0.1942 -0.342,-0.1615 -0.356,-0.1273 -0.366,-0.0918 -0.374,-0.0555 -0.377,-0.0185 -0.378,0.0185 -0.373,0.0555 -0.367,0.0918 -0.356,0.1273 -0.341,0.1615 -0.324,0.1942 -0.304,0.2251 -0.28,0.2537 -0.253,0.28 -0.225,0.3035 -0.195,0.324 -0.161,0.3416 -0.128,0.3557 -0.091,0.3665 -0.056,0.3737 -0.018,0.3774 0.018,0.3774 0.056,0.3737 0.091,0.3665 0.128,0.3557 0.161,0.3416 0.195,0.324 0.225,0.3035 0.253,0.28 0.28,0.2537 0.304,0.2251 0.324,0.1942 0.341,0.1615 0.356,0.1273 0.367,0.0918 0.373,0.0555 0.378,0.0185 0.377,-0.0185 0.374,-0.0555 0.366,-0.0918 0.356,-0.1273 0.342,-0.1615 0.324,-0.1942 0.303,-0.2251 0.28,-0.2537 0.254,-0.28 0.225,-0.3035 0.194,-0.324 0.162,-0.3416 0.127,-0.3557 0.092,-0.3665 0.055,-0.3737 z m -3.617,59.25 -0.029,-0.5979 -0.088,-0.5922 -0.146,-0.5806 -0.201,-0.5637 -0.256,-0.5411 -0.308,-0.5135 -0.357,-0.4808 -0.402,-0.4436 -0.443,-0.402 -0.481,-0.3566 -0.513,-0.3077 -0.542,-0.256 -0.563,-0.2016 -0.581,-0.1455 -0.592,-0.0878 -0.598,-0.0294 -0.598,0.0294 -0.592,0.0878 -0.581,0.1455 -0.563,0.2016 -0.542,0.256 -0.513,0.3077 -0.481,0.3566 -0.443,0.402 -0.402,0.4436 -0.357,0.4808 -0.308,0.5135 -0.256,0.5411 -0.201,0.5637 -0.146,0.5806 -0.088,0.5922 -0.029,0.5979 0.029,0.5979 0.088,0.5922 0.146,0.5806 0.201,0.5637 0.256,0.5411 0.308,0.5135 0.357,0.4808 0.402,0.4436 0.443,0.402 0.481,0.3566 0.513,0.3077 0.542,0.256 0.563,0.2016 0.581,0.1455 0.592,0.0878 0.598,0.0294 0.598,-0.0294 0.592,-0.0878 0.581,-0.1455 0.563,-0.2016 0.542,-0.256 0.513,-0.3077 0.481,-0.3566 0.443,-0.402 0.402,-0.4436 0.357,-0.4808 0.308,-0.5135 0.256,-0.5411 0.201,-0.5637 0.146,-0.5806 0.088,-0.5922 z m -1.038,-19.75 -0.004,-0.0992 -0.015,-0.0983 -0.024,-0.0964 -0.034,-0.0936 -0.042,-0.0898 -0.051,-0.0852 -0.059,-0.0798 -0.067,-0.0736 -0.074,-0.0668 -0.079,-0.0592 -0.086,-0.051 -0.09,-0.0425 -0.093,-0.0335 -0.096,-0.0241 -0.099,-0.0146 -0.099,-0.0049 -0.099,0.0049 -0.032,0.0047 -0.043,-0.1728 -0.134,-0.3742 -0.17,-0.3593 -0.205,-0.3409 -0.236,-0.3192 -0.267,-0.2945 -0.295,-0.2669 -0.319,-0.2368 -0.341,-0.2043 -0.359,-0.1699 -0.374,-0.1339 -0.386,-0.0966 -0.393,-0.0583 -0.397,-0.0195 -0.397,0.0195 -0.393,0.0583 -0.386,0.0966 -0.374,0.1339 -0.359,0.1699 -0.341,0.2043 -0.319,0.2368 -0.295,0.2669 -0.267,0.2945 -0.236,0.3192 -0.205,0.3409 -0.17,0.3593 -0.134,0.3742 -0.043,0.1728 -0.032,-0.0047 -0.099,-0.0049 -0.099,0.0049 -0.099,0.0146 -0.096,0.0241 -0.093,0.0335 -0.09,0.0425 -0.086,0.051 -0.079,0.0592 -0.074,0.0668 -0.067,0.0736 -0.059,0.0798 -0.051,0.0852 -0.042,0.0898 -0.034,0.0936 -0.024,0.0964 -0.015,0.0983 -0.005,0.0992 0.005,0.0992 0.015,0.0983 0.024,0.0964 0.034,0.0936 0.042,0.0898 0.051,0.0852 0.059,0.0798 0.067,0.0736 0.074,0.0668 0.079,0.0592 0.086,0.051 0.09,0.0425 0.093,0.0335 0.096,0.0241 0.099,0.0146 0.099,0.0049 0.099,-0.0049 0.032,-0.0047 0.043,0.1728 0.134,0.3742 0.17,0.3593 0.205,0.3409 0.236,0.3192 0.267,0.2945 0.295,0.2669 0.319,0.2368 0.341,0.2043 0.359,0.1699 0.374,0.1339 0.386,0.0966 0.393,0.0583 0.397,0.0195 0.397,-0.0195 0.393,-0.0583 0.386,-0.0966 0.374,-0.1339 0.359,-0.1699 0.341,-0.2043 0.319,-0.2368 0.295,-0.2669 0.267,-0.2945 0.236,-0.3192 0.205,-0.3409 0.17,-0.3593 0.134,-0.3742 0.043,-0.1728 0.032,0.0047 0.099,0.0049 0.099,-0.0049 0.099,-0.0146 0.096,-0.0241 0.093,-0.0335 0.09,-0.0425 0.086,-0.051 0.079,-0.0592 0.074,-0.0668 0.067,-0.0736 0.059,-0.0798 0.051,-0.0852 0.042,-0.0898 0.034,-0.0936 0.024,-0.0964 0.015,-0.0983 z m 0,-19.75 -0.004,-0.0992 -0.015,-0.0983 -0.024,-0.0964 -0.034,-0.0936 -0.042,-0.0898 -0.051,-0.0852 -0.059,-0.0798 -0.067,-0.0736 -0.074,-0.0668 -0.079,-0.0592 -0.086,-0.051 -0.09,-0.0425 -0.093,-0.0335 -0.096,-0.0241 -0.099,-0.0146 -0.099,-0.0049 -0.099,0.0049 -0.032,0.0047 -0.043,-0.1728 -0.134,-0.3742 -0.17,-0.3593 -0.205,-0.3409 -0.236,-0.3192 -0.267,-0.2945 -0.295,-0.2669 -0.319,-0.2368 -0.341,-0.2043 -0.359,-0.1699 -0.374,-0.1339 -0.386,-0.0966 -0.393,-0.0583 -0.397,-0.0195 -0.397,0.0195 -0.393,0.0583 -0.386,0.0966 -0.374,0.1339 -0.359,0.1699 -0.341,0.2043 -0.319,0.2368 -0.295,0.2669 -0.267,0.2945 -0.236,0.3192 -0.205,0.3409 -0.17,0.3593 -0.134,0.3742 -0.043,0.1728 -0.032,-0.0047 -0.099,-0.0049 -0.099,0.0049 -0.099,0.0146 -0.096,0.0241 -0.093,0.0335 -0.09,0.0425 -0.086,0.051 -0.079,0.0592 -0.074,0.0668 -0.067,0.0736 -0.059,0.0798 -0.051,0.0852 -0.042,0.0898 -0.034,0.0936 -0.024,0.0964 -0.015,0.0983 -0.005,0.0992 0.005,0.0992 0.015,0.0983 0.024,0.0964 0.034,0.0936 0.042,0.0898 0.051,0.0852 0.059,0.0798 0.067,0.0736 0.074,0.0668 0.079,0.0592 0.086,0.051 0.09,0.0425 0.093,0.0335 0.096,0.0241 0.099,0.0146 0.099,0.0049 0.099,-0.0049 0.032,-0.0047 0.043,0.1728 0.134,0.3742 0.17,0.3593 0.205,0.3409 0.236,0.3192 0.267,0.2945 0.295,0.2669 0.319,0.2368 0.341,0.2043 0.359,0.1699 0.374,0.1339 0.386,0.0966 0.393,0.0583 0.397,0.0195 0.397,-0.0195 0.393,-0.0583 0.386,-0.0966 0.374,-0.1339 0.359,-0.1699 0.341,-0.2043 0.319,-0.2368 0.295,-0.2669 0.267,-0.2945 0.236,-0.3192 0.205,-0.3409 0.17,-0.3593 0.134,-0.3742 0.043,-0.1728 0.032,0.0047 0.099,0.0049 0.099,-0.0049 0.099,-0.0146 0.096,-0.0241 0.093,-0.0335 0.09,-0.0425 0.086,-0.051 0.079,-0.0592 0.074,-0.0668 0.067,-0.0736 0.059,-0.0798 0.051,-0.0852 0.042,-0.0898 0.034,-0.0936 0.024,-0.0964 0.015,-0.0983 z m -16.562,39.5 -0.029,-0.5979 -0.088,-0.5922 -0.146,-0.5806 -0.201,-0.5637 -0.256,-0.5411 -0.308,-0.5135 -0.357,-0.4808 -0.402,-0.4436 -0.443,-0.402 -0.481,-0.3566 -0.513,-0.3077 -0.542,-0.256 -0.563,-0.2016 -0.581,-0.1455 -0.592,-0.0878 -0.598,-0.0294 -0.598,0.0294 -0.592,0.0878 -0.581,0.1455 -0.563,0.2016 -0.542,0.256 -0.513,0.3077 -0.481,0.3566 -0.443,0.402 -0.402,0.4436 -0.357,0.4808 -0.308,0.5135 -0.256,0.5411 -0.201,0.5637 -0.146,0.5806 -0.088,0.5922 -0.029,0.5979 0.029,0.5979 0.088,0.5922 0.146,0.5806 0.201,0.5637 0.256,0.5411 0.308,0.5135 0.357,0.4808 0.402,0.4436 0.443,0.402 0.481,0.3566 0.513,0.3077 0.542,0.256 0.563,0.2016 0.581,0.1455 0.592,0.0878 0.598,0.0294 0.598,-0.0294 0.592,-0.0878 0.581,-0.1455 0.563,-0.2016 0.542,-0.256 0.513,-0.3077 0.481,-0.3566 0.443,-0.402 0.402,-0.4436 0.357,-0.4808 0.308,-0.5135 0.256,-0.5411 0.201,-0.5637 0.146,-0.5806 0.088,-0.5922 z m -1.038,-19.75 -0.004,-0.0992 -0.015,-0.0983 -0.024,-0.0964 -0.034,-0.0936 -0.042,-0.0898 -0.051,-0.0852 -0.059,-0.0798 -0.067,-0.0736 -0.074,-0.0668 -0.079,-0.0592 -0.086,-0.051 -0.09,-0.0425 -0.093,-0.0335 -0.096,-0.0241 -0.099,-0.0146 -0.099,-0.0049 -0.099,0.0049 -0.032,0.0047 -0.043,-0.1728 -0.134,-0.3742 -0.17,-0.3593 -0.205,-0.3409 -0.236,-0.3192 -0.267,-0.2945 -0.295,-0.2669 -0.319,-0.2368 -0.341,-0.2043 -0.359,-0.1699 -0.374,-0.1339 -0.386,-0.0966 -0.393,-0.0583 -0.397,-0.0195 -0.397,0.0195 -0.393,0.0583 -0.386,0.0966 -0.374,0.1339 -0.359,0.1699 -0.341,0.2043 -0.319,0.2368 -0.295,0.2669 -0.267,0.2945 -0.236,0.3192 -0.205,0.3409 -0.17,0.3593 -0.134,0.3742 -0.043,0.1728 -0.032,-0.0047 -0.099,-0.0049 -0.099,0.0049 -0.099,0.0146 -0.096,0.0241 -0.093,0.0335 -0.09,0.0425 -0.086,0.051 -0.079,0.0592 -0.074,0.0668 -0.067,0.0736 -0.059,0.0798 -0.051,0.0852 -0.042,0.0898 -0.034,0.0936 -0.024,0.0964 -0.015,0.0983 -0.005,0.0992 0.005,0.0992 0.015,0.0983 0.024,0.0964 0.034,0.0936 0.042,0.0898 0.051,0.0852 0.059,0.0798 0.067,0.0736 0.074,0.0668 0.079,0.0592 0.086,0.051 0.09,0.0425 0.093,0.0335 0.096,0.0241 0.099,0.0146 0.099,0.0049 0.099,-0.0049 0.032,-0.0047 0.043,0.1728 0.134,0.3742 0.17,0.3593 0.205,0.3409 0.236,0.3192 0.267,0.2945 0.295,0.2669 0.319,0.2368 0.341,0.2043 0.359,0.1699 0.374,0.1339 0.386,0.0966 0.393,0.0583 0.397,0.0195 0.397,-0.0195 0.393,-0.0583 0.386,-0.0966 0.374,-0.1339 0.359,-0.1699 0.341,-0.2043 0.319,-0.2368 0.295,-0.2669 0.267,-0.2945 0.236,-0.3192 0.205,-0.3409 0.17,-0.3593 0.134,-0.3742 0.043,-0.1728 0.032,0.0047 0.099,0.0049 0.099,-0.0049 0.099,-0.0146 0.096,-0.0241 0.093,-0.0335 0.09,-0.0425 0.086,-0.051 0.079,-0.0592 0.074,-0.0668 0.067,-0.0736 0.059,-0.0798 0.051,-0.0852 0.042,-0.0898 0.034,-0.0936 0.024,-0.0964 0.015,-0.0983 z m 0,-19.75 -0.004,-0.0992 -0.015,-0.0983 -0.024,-0.0964 -0.034,-0.0936 -0.042,-0.0898 -0.051,-0.0852 -0.059,-0.0798 -0.067,-0.0736 -0.074,-0.0668 -0.079,-0.0592 -0.086,-0.051 -0.09,-0.0425 -0.093,-0.0335 -0.096,-0.0241 -0.099,-0.0146 -0.099,-0.0049 -0.099,0.0049 -0.032,0.0047 -0.043,-0.1728 -0.134,-0.3742 -0.17,-0.3593 -0.205,-0.3409 -0.236,-0.3192 -0.267,-0.2945 -0.295,-0.2669 -0.319,-0.2368 -0.341,-0.2043 -0.359,-0.1699 -0.374,-0.1339 -0.386,-0.0966 -0.393,-0.0583 -0.397,-0.0195 -0.397,0.0195 -0.393,0.0583 -0.386,0.0966 -0.374,0.1339 -0.359,0.1699 -0.341,0.2043 -0.319,0.2368 -0.295,0.2669 -0.267,0.2945 -0.236,0.3192 -0.205,0.3409 -0.17,0.3593 -0.134,0.3742 -0.043,0.1728 -0.032,-0.0047 -0.099,-0.0049 -0.099,0.0049 -0.099,0.0146 -0.096,0.0241 -0.093,0.0335 -0.09,0.0425 -0.086,0.051 -0.079,0.0592 -0.074,0.0668 -0.067,0.0736 -0.059,0.0798 -0.051,0.0852 -0.042,0.0898 -0.034,0.0936 -0.024,0.0964 -0.015,0.0983 -0.005,0.0992 0.005,0.0992 0.015,0.0983 0.024,0.0964 0.034,0.0936 0.042,0.0898 0.051,0.0852 0.059,0.0798 0.067,0.0736 0.074,0.0668 0.079,0.0592 0.086,0.051 0.09,0.0425 0.093,0.0335 0.096,0.0241 0.099,0.0146 0.099,0.0049 0.099,-0.0049 0.032,-0.0047 0.043,0.1728 0.134,0.3742 0.17,0.3593 0.205,0.3409 0.236,0.3192 0.267,0.2945 0.295,0.2669 0.319,0.2368 0.341,0.2043 0.359,0.1699 0.374,0.1339 0.386,0.0966 0.393,0.0583 0.397,0.0195 0.397,-0.0195 0.393,-0.0583 0.386,-0.0966 0.374,-0.1339 0.359,-0.1699 0.341,-0.2043 0.319,-0.2368 0.295,-0.2669 0.267,-0.2945 0.236,-0.3192 0.205,-0.3409 0.17,-0.3593 0.134,-0.3742 0.043,-0.1728 0.032,0.0047 0.099,0.0049 0.099,-0.0049 0.099,-0.0146 0.096,-0.0241 0.093,-0.0335 0.09,-0.0425 0.086,-0.051 0.079,-0.0592 0.074,-0.0668 0.067,-0.0736 0.059,-0.0798 0.051,-0.0852 0.042,-0.0898 0.034,-0.0936 0.024,-0.0964 0.015,-0.0983 z M 33.183,-79 l -0.018,-0.3774 -0.056,-0.3737 -0.091,-0.3665 -0.128,-0.3557 -0.161,-0.3416 -0.195,-0.324 -0.225,-0.3035 -0.253,-0.28 -0.28,-0.2537 -0.304,-0.2251 -0.324,-0.1942 -0.341,-0.1615 -0.356,-0.1273 -0.367,-0.0918 -0.373,-0.0555 -0.378,-0.0185 -0.377,0.0185 -0.374,0.0555 -0.366,0.0918 -0.356,0.1273 -0.342,0.1615 -0.324,0.1942 -0.303,0.2251 -0.28,0.2537 -0.254,0.28 -0.225,0.3035 -0.194,0.324 -0.162,0.3416 -0.127,0.3557 -0.092,0.3665 -0.055,0.3737 -0.019,0.3774 0.019,0.3774 0.055,0.3737 0.092,0.3665 0.127,0.3557 0.162,0.3416 0.194,0.324 0.225,0.3035 0.254,0.28 0.28,0.2537 0.303,0.2251 0.324,0.1942 0.342,0.1615 0.356,0.1273 0.366,0.0918 0.374,0.0555 0.377,0.0185 0.378,-0.0185 0.373,-0.0555 0.367,-0.0918 0.356,-0.1273 0.341,-0.1615 0.324,-0.1942 0.304,-0.2251 0.28,-0.2537 0.253,-0.28 0.225,-0.3035 0.195,-0.324 0.161,-0.3416 0.128,-0.3557 0.091,-0.3665 0.056,-0.3737 z m -9.483,59.25 -0.029,-0.5979 -0.088,-0.5922 -0.146,-0.5806 -0.201,-0.5637 -0.256,-0.5411 -0.308,-0.5135 -0.357,-0.4808 -0.402,-0.4436 -0.443,-0.402 -0.481,-0.3566 -0.513,-0.3077 -0.542,-0.256 -0.563,-0.2016 -0.581,-0.1455 -0.592,-0.0878 -0.598,-0.0294 -0.598,0.0294 -0.592,0.0878 -0.581,0.1455 -0.563,0.2016 -0.542,0.256 -0.513,0.3077 -0.481,0.3566 -0.443,0.402 -0.402,0.4436 -0.357,0.4808 -0.308,0.5135 -0.256,0.5411 -0.201,0.5637 -0.146,0.5806 -0.088,0.5922 -0.029,0.5979 0.029,0.5979 0.088,0.5922 0.146,0.5806 0.201,0.5637 0.256,0.5411 0.308,0.5135 0.357,0.4808 0.402,0.4436 0.443,0.402 0.481,0.3566 0.513,0.3077 0.542,0.256 0.563,0.2016 0.581,0.1455 0.592,0.0878 0.598,0.0294 0.598,-0.0294 0.592,-0.0878 0.581,-0.1455 0.563,-0.2016 0.542,-0.256 0.513,-0.3077 0.481,-0.3566 0.443,-0.402 0.402,-0.4436 0.357,-0.4808 0.308,-0.5135 0.256,-0.5411 0.201,-0.5637 0.146,-0.5806 0.088,-0.5922 z m -1.038,-19.75 -0.004,-0.0992 -0.015,-0.0983 -0.024,-0.0964 -0.034,-0.0936 -0.042,-0.0898 -0.051,-0.0852 -0.059,-0.0798 -0.067,-0.0736 -0.074,-0.0668 -0.079,-0.0592 -0.086,-0.051 -0.09,-0.0425 -0.093,-0.0335 -0.096,-0.0241 -0.099,-0.0146 -0.099,-0.0049 -0.099,0.0049 -0.032,0.0047 -0.043,-0.1728 -0.134,-0.3742 -0.17,-0.3593 -0.205,-0.3409 -0.236,-0.3192 -0.267,-0.2945 -0.295,-0.2669 -0.319,-0.2368 -0.341,-0.2043 -0.359,-0.1699 -0.374,-0.1339 -0.386,-0.0966 -0.393,-0.0583 -0.397,-0.0195 -0.397,0.0195 -0.393,0.0583 -0.386,0.0966 -0.374,0.1339 -0.359,0.1699 -0.341,0.2043 -0.319,0.2368 -0.295,0.2669 -0.267,0.2945 -0.236,0.3192 -0.205,0.3409 -0.17,0.3593 -0.134,0.3742 -0.043,0.1728 -0.032,-0.0047 -0.099,-0.0049 -0.099,0.0049 -0.099,0.0146 -0.096,0.0241 -0.093,0.0335 -0.09,0.0425 -0.086,0.051 -0.079,0.0592 -0.074,0.0668 -0.067,0.0736 -0.059,0.0798 -0.051,0.0852 -0.042,0.0898 -0.034,0.0936 -0.024,0.0964 -0.015,0.0983 -0.005,0.0992 0.005,0.0992 0.015,0.0983 0.024,0.0964 0.034,0.0936 0.042,0.0898 0.051,0.0852 0.059,0.0798 0.067,0.0736 0.074,0.0668 0.079,0.0592 0.086,0.051 0.09,0.0425 0.093,0.0335 0.096,0.0241 0.099,0.0146 0.099,0.0049 0.099,-0.0049 0.032,-0.0047 0.043,0.1728 0.134,0.3742 0.17,0.3593 0.205,0.3409 0.236,0.3192 0.267,0.2945 0.295,0.2669 0.319,0.2368 0.341,0.2043 0.359,0.1699 0.374,0.1339 0.386,0.0966 0.393,0.0583 0.397,0.0195 0.397,-0.0195 0.393,-0.0583 0.386,-0.0966 0.374,-0.1339 0.359,-0.1699 0.341,-0.2043 0.319,-0.2368 0.295,-0.2669 0.267,-0.2945 0.236,-0.3192 0.205,-0.3409 0.17,-0.3593 0.134,-0.3742 0.043,-0.1728 0.032,0.0047 0.099,0.0049 0.099,-0.0049 0.099,-0.0146 0.096,-0.0241 0.093,-0.0335 0.09,-0.0425 0.086,-0.051 0.079,-0.0592 0.074,-0.0668 0.067,-0.0736 0.059,-0.0798 0.051,-0.0852 0.042,-0.0898 0.034,-0.0936 0.024,-0.0964 0.015,-0.0983 z"
     id="path4"
     inkscape:connector-curvature="0"
     style="fill:#d3d3d3;stroke:#000000;stroke-width:0.5" />
</svg>
